{"title":"Jimmy Fallon 2015 11 05 Martin Short HDTV x264-aAF","uid":12706664,"size":444136614,"categoryP":"video","categoryS":"tv_shows","magnet":"?xt=urn:btih:8b66f836a4d985eb068742762251292e22d25c1b&amp;dn=Jimmy+Fallon+2015+11+05+Martin+Short+HDTV+x264-aAF&amp;tr=udp%3A%2F%2Ftracker.leechers-paradise.org%3A6969&amp;tr=udp%3A%2F%2Fzer0day.ch%3A1337&amp;tr=udp%3A%2F%2Fopen.demonii.com%3A1337&amp;tr=udp%3A%2F%2Ftracker.coppersurfer.tk%3A6969&amp;tr=udp%3A%2F%2Fexodus.desync.com%3A6969","seeders":0,"leechers":0,"uploader":null,"files":3,"time":1446838094,"description":"\nJimmy.Fallon.2015.11.05.Martin.Short.HDTV.x264-aAF.mp4\r\n\r\n\r\n\r\nVideo\r\nID : 2\r\nFormat : AVC\r\nFormat/Info : Advanced Video Codec\r\nFormat profile :   \r\nFormat settings, CABAC : Yes\r\nFormat settings, ReFrames : 5 frames\r\nCodec ID : avc1\r\nCodec ID/Info : Advanced Video Coding\r\nDuration : 41mn 10s\r\nSource duration : 41mn 10s\r\nBit rate : 1 288 Kbps\r\nMaximum bit rate : 3 939 Kbps\r\nWidth : 720 pixels\r\nHeight : 404 pixels\r\nDisplay aspect ratio : 16:9\r\nFrame rate mode : Constant\r\nFrame rate : 29.970 fps\r\nColor space : YUV\r\nChroma subsampling : 4:2:0\r\nBit depth : 8 bits\r\nScan type : Progressive\r\nBits/(Pixel*Frame) : 0.148\r\nStream size : 379 MiB (90%)\r\nSource stream size : 379 MiB (90%)\r\nWriting library : x264 core 148 r2638 7599210\r\nEncoding settings : cabac=1 / ref=5 / deblock=1:0:0 / analyse=0x3:0x113 / me=umh / subme=8 / psy=1 / psy_rd=1.00:0.00 / mixed_ref=1 / me_range=16 / chroma_me=1 / trellis=1 / 8x8dct=1 / cqm=0 / deadzone=21,11 / fast_pskip=1 / chroma_qp_offset=-2 / threads=13 / lookahead_threads=2 / sliced_threads=0 / nr=0 / decimate=1 / interlaced=0 / bluray_compat=0 / constrained_intra=0 / bframes=3 / b_pyramid=2 / b_adapt=2 / b_bias=0 / direct=3 / weightb=1 / open_gop=0 / weightp=2 / keyint=250 / keyint_min=25 / scenecut=40 / intra_refresh=0 / rc_lookahead=50 / rc=crf / mbtree=1 / crf=19.0 / qcomp=0.60 / qpmin=0 / qpmax=69 / qpstep=4 / ip_ratio=1.40 / aq=1:1.00\r\nEncoded date : UTC 2015-11-06 17:43:30\r\nTagged date : UTC 2015-11-06 17:50:21\r\nColor range : Limited\r\nMatrix coefficients : BT.709\r\n\r\nAudio\r\nID : 1\r\nFormat : AAC\r\nFormat/Info : Advanced Audio Codec\r\nFormat profile : LC\r\nCodec ID : 40\r\nDuration : 41mn 10s\r\nBit rate mode : Variable\r\nBit rate : 144 Kbps\r\nMaximum bit rate : 187 Kbps\r\nChannel(s) : 2 channels\r\nChannel positions : Front: L R\r\nSampling rate : 48.0 KHz\r\nCompression mode : Lossy\r\nStream size : 42.7 MiB (10%)\r\nEncoded date : UTC 2015-11-06 17:50:20\r\nTagged date : UTC 2015-11-06 17:50:21","torrent":{"xt":"urn:btih:8b66f836a4d985eb068742762251292e22d25c1b","amp;dn":"Jimmy+Fallon+2015+11+05+Martin+Short+HDTV+x264-aAF","amp;tr":["udp%3A%2F%2Ftracker.leechers-paradise.org%3A6969","udp%3A%2F%2Fzer0day.ch%3A1337","udp%3A%2F%2Fopen.demonii.com%3A1337","udp%3A%2F%2Ftracker.coppersurfer.tk%3A6969","udp%3A%2F%2Fexodus.desync.com%3A6969"],"infoHash":"8b66f836a4d985eb068742762251292e22d25c1b","infoHashBuffer":{"type":"Buffer","data":[139,102,248,54,164,217,133,235,6,135,66,118,34,81,41,46,34,210,92,27]},"announce":[],"urlList":[]}}